<svg version="1.1" xmlns="http://www.w3.org/2000/svg" xmlns:xlink="http://www.w3.org/1999/xlink" x="0px" y="0px"
	 viewBox="0 0 24 24" class="icn-instagram">
	<path d="M5.3,2.9h13.4c1.3,0,2.3,0.9,2.3,2.3v13.4c0,1.4-1,2.3-2.3,2.3H5.3C4,20.9,3,19.9,3,18.6V5.2
		C3,3.8,4,2.9,5.3,2.9L5.3,2.9z M16.1,4.9c-0.4,0-0.8,0.4-0.8,0.8v1.9c0,0.4,0.4,0.8,0.8,0.8h2c0.4,0,0.8-0.4,0.8-0.8V5.7
		c0-0.4-0.4-0.8-0.8-0.8L16.1,4.9L16.1,4.9z M18.9,10.5h-1.6c0.1,0.5,0.2,1,0.2,1.5c0,3-2.5,5.4-5.6,5.4c-3.1,0-5.6-2.4-5.6-5.4
		c0-0.5,0.1-1.1,0.2-1.5H5v7.6c0,0.4,0.3,0.7,0.7,0.7h12.5c0.4,0,0.7-0.3,0.7-0.7L18.9,10.5L18.9,10.5z M12,8.3
		c-2,0-3.6,1.6-3.6,3.5s1.6,3.5,3.6,3.5c2,0,3.6-1.6,3.6-3.5S14,8.3,12,8.3z"/>
</svg>
