<svg version="1.1" xmlns="http://www.w3.org/2000/svg" xmlns:xlink="http://www.w3.org/1999/xlink" x="0px" y="0px"
	 viewBox="0 0 24 24" class="icn-twitter">
	<path d="M21.4,6.2c-0.7,0.3-1.4,0.5-2.2,0.6c0.8-0.5,1.4-1.2,1.7-2.1c-0.7,0.4-1.6,0.8-2.5,0.9
	c-0.7-0.8-1.7-1.2-2.8-1.2c-2.1,0-3.9,1.7-3.9,3.9c0,0.3,0,0.6,0.1,0.9c-3.2-0.2-6.1-1.7-8-4C3.6,5.6,3.4,6.3,3.4,7
	c0,1.3,0.7,2.5,1.7,3.2c-0.6,0-1.2-0.2-1.8-0.5c0,0,0,0,0,0c0,1.9,1.3,3.4,3.1,3.8c-0.3,0.1-0.7,0.1-1,0.1c-0.2,0-0.5,0-0.7-0.1
	c0.5,1.5,1.9,2.7,3.6,2.7c-1.3,1-3,1.7-4.8,1.7c-0.3,0-0.6,0-0.9-0.1c1.7,1.1,3.7,1.7,5.9,1.7c7.1,0,11-5.9,11-11c0-0.2,0-0.3,0-0.5
	C20.2,7.6,20.9,6.9,21.4,6.2z"/>
</svg>
