<svg version="1.1" xmlns="http://www.w3.org/2000/svg" xmlns:xlink="http://www.w3.org/1999/xlink" x="0px" y="0px" viewBox="0 -3 24 24" class="icn-camera">
	<path d="M12,5.7c-2.2,0-4,1.9-4,4.1s1.8,4.1,4,4.1s4-1.9,4-4.1S14.2,5.7,12,5.7z M14.3,11.8c-1.1,1.3-3,1.5-4.2,0.3
		C8.8,11,8.7,9,9.8,7.8c1.1-1.3,3-1.5,4.2-0.3C15.3,8.6,15.4,10.5,14.3,11.8z"></path>
	<path d="M12,7.7c-1.1,0-2,0.9-2,2.1l0,0c0,0.2,0.1,0.2,0.2,0.2c0.2,0,0.2-0.1,0.2-0.2l0,0c0-0.9,0.7-1.5,1.5-1.5
		c0.2,0,0.2-0.1,0.2-0.2C12.3,7.9,12.2,7.7,12,7.7z"></path>
	<path d="M18.8,5.2l-2.2-0.4L15.9,3c-0.2-0.6-0.8-1-1.4-1h-5C8.9,2.1,8.4,2.5,8.1,3.1L7.5,4.8L5.3,5.2
		C4.5,5.3,4,5.9,4,6.7v7.7C4,15.3,4.7,16,5.5,16h13c0.8,0,1.5-0.7,1.5-1.5V6.7C20.1,5.9,19.5,5.3,18.8,5.2z M19,14.5
		c0,0.3-0.2,0.5-0.5,0.5h-13C5.2,15,5,14.8,5,14.5V6.7c0-0.2,0.2-0.5,0.5-0.5l2.7-0.5L9,3.4c0.1-0.2,0.2-0.3,0.5-0.3h5
		c0.2,0,0.4,0.2,0.5,0.3l0.9,2.3l2.7,0.5C18.8,6.3,19,6.4,19,6.7C19,6.7,19,14.5,19,14.5z"></path>
</svg>
