<svg version="1.1" xmlns="http://www.w3.org/2000/svg" xmlns:xlink="http://www.w3.org/1999/xlink" viewBox="0 0 24 24" class="icn-cart">
	<path fill="#DCDBDB" d="M17,6h-2.1c-0.2-1.1-1.2-2-2.4-2h-1C10.3,4,9.3,4.9,9,6H7
		C6.4,6,6,6.4,6,7v12c0,0.6,0.4,1,1,1h10c0.6,0,1-0.4,1-1V7C18,6.4,17.6,6,17,6z M11.5,5h1c0.7,0,1.2,0.4,1.4,1h-3.8
		C10.3,5.4,10.8,5,11.5,5z M17,18.5c0,0.3-0.2,0.5-0.5,0.5h-9C7.2,19,7,18.8,7,18.5V17h10V18.5z M17,16H7V7.5C7,7.2,7.2,7,7.5,7H9
		v3h1V7h4v3h1V7h1.5C16.8,7,17,7.2,17,7.5V16z"/>
</svg>
