<svg xmlns="http://www.w3.org/2000/svg" xmlns:xlink="http://www.w3.org/1999/xlink" x="0px" y="0px" shape-rendering="geometricPosition" viewBox="0 -2 24 24" class="icn-cog">
	<ellipse fill="none" cx="12.2" cy="9" rx="3.2" ry="3.1"></ellipse>
	<path d="M10.7,2L13,3.2l2.5-0.4l1,2.4l2.3,1.2L18,8.8l0.6,2.3l-1.9,1.4l-0.8,2.4l-2.5-0.4L11,15.9l-1.7-2l-2.5-0.4
			v-2.5L5,9.1l1.6-2L6.6,4.5L9.1,4L10.7,2 M10.7,1c-0.3,0-0.5,0.1-0.7,0.4L8.7,3.1L6.4,3.5C5.8,3.6,5.6,4,5.6,4.5l0.1,2.2L4.2,8.5
			c-0.3,0.4-0.3,0.8,0,1.3l1.5,1.7v2.2c0,0.4,0.4,0.8,0.8,1L8.8,15l1.5,1.7c0.2,0.2,0.5,0.3,0.7,0.3c0.2,0,0.4,0,0.5-0.1l1.9-1.2
			l2.3,0.4c0.1,0,0.1,0,0.1,0c0.4,0,0.7-0.3,0.8-0.6l0.7-2.1l1.9-1.2c0.4-0.3,0.5-0.7,0.4-1.2l-0.5-2.3l0.7-2.1c0.2-0.4,0-1-0.5-1.2
			l-2-1.1l-0.8-2.1c-0.2-0.4-0.5-0.5-0.8-0.5c-0.1,0-0.1,0-0.2,0l-2.2,0.4l-2-1.1C11.1,1,10.9,1,10.7,1L10.7,1z"></path>
</svg>
