<svg version="1.1" id="hevnly-symbol" xmlns="http://www.w3.org/2000/svg" xmlns:xlink="http://www.w3.org/1999/xlink" x="0px" y="0px" viewBox="0 0 24 24" class="icn-hevnly-symbol">
	<path d="M19.8,3.5L14.9,1C14.8,1,14.6,1,14.5,1.1l-2.4,2.2L9.7,1.1C9.5,1,9.3,1,9.2,1L4.3,3.5
		C4.1,3.6,4,3.7,4,3.8v12.8C4,16.8,4.1,17,4.3,17c0,0,0.1,0,0.1,0c0.1,0,0.3-0.1,0.3-0.2L12,4.7l7.2,12.1c0.1,0.1,0.2,0.2,0.3,0.2
		c0,0,0.1,0,0.1,0c0.2,0,0.3-0.2,0.3-0.4V3.8C20,3.7,19.9,3.6,19.8,3.5z M4.8,15.2V4.1l4.4-2.2l2.3,2.1L4.8,15.2z"></path>
</svg>
