<?xml version="1.0" encoding="utf-8"?>
<!-- Generator: Adobe Illustrator 17.1.0, SVG Export Plug-In . SVG Version: 6.00 Build 0)  -->
<!DOCTYPE svg PUBLIC "-//W3C//DTD SVG 1.1//EN" "http://www.w3.org/Graphics/SVG/1.1/DTD/svg11.dtd">
<svg version="1.1" id="Layer_1" xmlns="http://www.w3.org/2000/svg" xmlns:xlink="http://www.w3.org/1999/xlink" x="0px" y="0px"
	 viewBox="0 0 72.3 62.6" enable-background="new 0 0 72.3 62.6" xml:space="preserve">
<image display="none" overflow="visible" width="1280" height="720" xlink:href="../../../../../../../../../../../3018353-poster-1280-quotess3.jpg"  transform="matrix(0.72 0 0 0.72 -260.1748 -300.1412)">
</image>
<image display="none" overflow="visible" width="1280" height="720" xlink:href="../../../../../../../../../../../3018353-poster-1280-quotess3.jpg"  transform="matrix(0.72 0 0 0.72 -261.1754 -300.1412)">
</image>
<path fill="#14181F" d="M31,34.5c0,1.1-0.9,2-2,2H2c-1.1,0-2-0.9-2-2V2c0-1.1,0.9-2,2-2h27c1.1,0,2,0.9,2,2V34.5z"/>
<path fill="#14181F" d="M71.7,34.9c0,1.1-0.9,2-2,2h-27c-1.1,0-2-0.9-2-2V2.4c0-1.1,0.9-2,2-2h27c1.1,0,2,0.9,2,2V34.9z"/>
<g>
	<path fill="#14181F" d="M1.7,62l28.6-25.9c0.8-0.7,0.6-1.3-0.5-1.2l-18.7,0.9c-1.1,0.1-1.3,0.4-0.4,0.7c0.9,0.3,0.9,1.2,0.1,2
		l-9.1,9.3"/>
</g>
<g>
	<path fill="#14181F" d="M42.2,62.6l28.6-25.9c0.8-0.7,0.6-1.3-0.5-1.2l-18.7,0.9c-1.1,0.1-1.3,0.4-0.4,0.7c0.9,0.3,0.9,1.2,0.1,2
		l-9.1,9.3"/>
</g>
</svg>
