<?xml version="1.0" encoding="utf-8"?>
<!-- Generator: Adobe Illustrator 18.1.1, SVG Export Plug-In . SVG Version: 6.00 Build 0)  -->
<svg version="1.1" id="Layer_1" xmlns="http://www.w3.org/2000/svg" xmlns:xlink="http://www.w3.org/1999/xlink" x="0px" y="0px"
	 viewBox="-109 200.9 392.1 392.1" enable-background="new -109 200.9 392.1 392.1" xml:space="preserve">
<title>Yellow Cog Wheel</title>
<g>
	<title>Layer 1</title>
	<g id="layer1">
		<path id="path4050" fill="#FAFAFA" d="M70.7,201.9l-8.1,46.3l0,0c-9.9,1.6-19.5,4.2-28.7,7.7v0l-30.2-36l-28.3,16.4l16.1,44.1
			l0.1,0c-7.7,6.3-14.7,13.4-21,21.1l0-0.1l-44.1-16.1l-16.4,28.3l36,30.2c-3.5,9.2-6,18.8-7.7,28.7l0,0l-46.3,8.1v32.8l46.3,8.1
			l0,0c1.6,9.9,4.2,19.5,7.7,28.7l-36,30.2l16.4,28.3l44.1-16.1l0-0.1c6.3,7.7,13.3,14.8,21,21.1l-0.1,0l-16.1,44.1l28.3,16.4
			l30.2-36v0c9.2,3.5,18.8,6.1,28.7,7.7l0,0l8.1,46.3h32.7l8.1-46.3l0,0c9.9-1.6,19.5-4.2,28.7-7.7l30.2,36l28.3-16.4l-16.1-44.1
			c7.7-6.3,14.7-13.3,21-21l44.2,16.1l16.3-28.3l-36-30.2c3.5-9.2,6.1-18.8,7.7-28.7l46.3-8.1v-32.8l-46.3-8.1
			c-1.6-9.9-4.2-19.5-7.7-28.7l36-30.2l-16.3-28.3l-44.2,16.1c-6.3-7.7-13.3-14.7-21-21l16.1-44.1l-28.3-16.4l-30.2,36
			c-9.2-3.5-18.8-6-28.7-7.7l0,0l-8.1-46.3H70.7L70.7,201.9z M87,281.6c63.7,0,115.4,51.6,115.4,115.3S150.7,512.3,87,512.3
			S-28.3,460.7-28.3,397S23.3,281.6,87,281.6z"/>
	</g>
</g>
</svg>
