<?xml version="1.0" encoding="utf-8"?>
<!-- Generator: Adobe Illustrator 18.1.1, SVG Export Plug-In . SVG Version: 6.00 Build 0)  -->
<svg version="1.1" id="Layer_1" xmlns="http://www.w3.org/2000/svg" xmlns:xlink="http://www.w3.org/1999/xlink" x="0px" y="0px"
	 viewBox="0 0 612 792" enable-background="new 0 0 612 792" xml:space="preserve">
<path fill="#FFFFFF" d="M321.3,393l145.3-145.3c5.1-5.1,5.1-10.2,0-15.3s-10.2-5.1-15.3,0L306,375.1L160.7,229.8
	c-2.6-2.6-12.8-2.6-17.9,0c-2.6,5.1-2.6,15.3,0,15.3l145.3,145.3L142.8,535.8c-2.6,5.1-5.1,10.2,0,15.3s15.3,5.1,15.3,5.1
	l145.4-145.4l145.3,145.4c5.1,5.1,10.2,5.1,15.3,0c5.1-5.1,5.1-10.2,0-15.3L321.3,393z"/>
</svg>
