<?xml version="1.0" encoding="utf-8"?>
<!-- Generator: Adobe Illustrator 17.1.0, SVG Export Plug-In . SVG Version: 6.00 Build 0)  -->
<!DOCTYPE svg PUBLIC "-//W3C//DTD SVG 1.1//EN" "http://www.w3.org/Graphics/SVG/1.1/DTD/svg11.dtd">
<svg version="1.1" id="Layer_1" xmlns="http://www.w3.org/2000/svg" xmlns:xlink="http://www.w3.org/1999/xlink" x="0px" y="0px"
	 viewBox="0 0 277.8 285.2" enable-background="new 0 0 277.8 285.2" xml:space="preserve">
<path id="right" display="none" d="M303-0.4c-0.1,0-0.2,0-0.3,0c-0.6-0.1-0.9-0.7-0.9-1.2l0-41.6c0-0.5,0.3-0.9,0.7-1.1l15.4-8
	c0.5-0.2,1.1-0.2,1.5,0.2l8.7,8c0.4,0.4,0.5,1.1,0.2,1.6L304.1-1C303.9-0.6,303.4-0.4,303-0.4z M304.3-42.4l0,36L325.5-43l-7.3-6.7
	L304.3-42.4z"/>
<path id="heart" fill="#231F20" d="M144.9,281.7c-0.9,1.5-2.4,2.7-4.2,3.2c-0.6,0.2-1.2,0.2-1.8,0.2c-2.4,0-4.8-1.3-6-3.5L0.9,54.1
	c-1.6-2.8-1.1-6.4,1.3-8.6L49.7,1.9c2.2-2,5.3-2.4,7.9-1.1l81.1,42.1l0.2-0.1l81.3-42c2.6-1.3,5.8-0.9,7.9,1.1l47.5,43.6
	c2.4,2.2,3,5.8,1.3,8.6L144.9,281.7z M138.9,264L262,51.9l-39.8-36.5l-83.3,43.1V264z"/>
<g>
	<line fill="#FAFBFB" x1="94.2" y1="10" x2="59.3" y2="44.6"/>
	<g>
		<path fill="#FFFFFF" d="M91.7,7.5c-11.6,11.5-23.3,23-34.9,34.5c-3.2,3.2,1.7,8.1,4.9,4.9C73.4,35.5,85,24,96.7,12.5
			C99.9,9.3,94.9,4.4,91.7,7.5L91.7,7.5z"/>
	</g>
</g>
<g>
	<line fill="#FAFBFB" x1="59.3" y1="44.6" x2="71.6" y2="66.5"/>
	<g>
		<path fill="#FFFFFF" d="M56.3,46.3c4.1,7.3,8.2,14.6,12.3,22c2.2,3.9,8.3,0.4,6-3.5c-4.1-7.3-8.2-14.6-12.3-22
			C60.1,38.9,54.1,42.4,56.3,46.3L56.3,46.3z"/>
	</g>
</g>
<g>
	<line fill="#FAFBFB" x1="72.1" y1="67.2" x2="55" y2="82.2"/>
	<g>
		<path fill="#FFFFFF" d="M69.6,64.7c-5.7,5-11.4,10-17.1,15.1c-3.4,3,1.6,7.9,4.9,4.9c5.7-5,11.4-10,17.1-15.1
			C77.9,66.7,72.9,61.7,69.6,64.7L69.6,64.7z"/>
	</g>
</g>
<g>
	<line fill="#FAFBFB" x1="63.3" y1="97.9" x2="55" y2="82.3"/>
	<g>
		<path fill="#FFFFFF" d="M66.4,96.1c-2.8-5.2-5.5-10.4-8.3-15.6c-2.1-4-8.2-0.4-6,3.5c2.8,5.2,5.5,10.4,8.3,15.6
			C62.4,103.6,68.5,100.1,66.4,96.1L66.4,96.1z"/>
	</g>
</g>
<g>
	<line fill="#FAFBFB" x1="45.5" y1="152.6" x2="63.5" y2="99.9"/>
	<g>
		<path fill="#FFFFFF" d="M48.9,153.5c6-17.6,12-35.1,17.9-52.7c1.5-4.3-5.3-6.1-6.7-1.9c-6,17.6-12,35.1-17.9,52.7
			C40.7,155.9,47.5,157.8,48.9,153.5L48.9,153.5z"/>
	</g>
</g>
</svg>
